<mxfile host="app.diagrams.net" agent="Mozilla/5.0 (Windows NT 10.0; Win64; x64) AppleWebKit/537.36 (KHTML, like Gecko) Chrome/131.0.0.0 Safari/537.36 Edg/131.0.0.0" version="25.0.3" pages="3">
  <diagram name="Attachment" id="6Mwj8GZHnmWRv_DUWO8a">
    <mxGraphModel dx="2465" dy="783" grid="1" gridSize="10" guides="1" tooltips="1" connect="1" arrows="1" fold="1" page="1" pageScale="1" pageWidth="827" pageHeight="1169" math="0" shadow="0">
      <root>
        <mxCell id="XGSOOz6GtM8z8IQ6b6iL-0" />
        <mxCell id="XGSOOz6GtM8z8IQ6b6iL-1" parent="XGSOOz6GtM8z8IQ6b6iL-0" />
        <mxCell id="XGSOOz6GtM8z8IQ6b6iL-2" value="" style="edgeStyle=orthogonalEdgeStyle;rounded=0;orthogonalLoop=1;jettySize=auto;html=1;" parent="XGSOOz6GtM8z8IQ6b6iL-1" source="XGSOOz6GtM8z8IQ6b6iL-4" target="XGSOOz6GtM8z8IQ6b6iL-5" edge="1">
          <mxGeometry relative="1" as="geometry" />
        </mxCell>
        <mxCell id="XGSOOz6GtM8z8IQ6b6iL-3" value="" style="edgeStyle=orthogonalEdgeStyle;rounded=0;orthogonalLoop=1;jettySize=auto;html=1;" parent="XGSOOz6GtM8z8IQ6b6iL-1" source="XGSOOz6GtM8z8IQ6b6iL-4" target="XGSOOz6GtM8z8IQ6b6iL-23" edge="1">
          <mxGeometry relative="1" as="geometry" />
        </mxCell>
        <mxCell id="XGSOOz6GtM8z8IQ6b6iL-4" value="Data API" style="rounded=1;whiteSpace=wrap;html=1;" parent="XGSOOz6GtM8z8IQ6b6iL-1" vertex="1">
          <mxGeometry x="470" y="160" width="120" height="60" as="geometry" />
        </mxCell>
        <mxCell id="XGSOOz6GtM8z8IQ6b6iL-5" value="NMC DB" style="shape=cylinder3;whiteSpace=wrap;html=1;boundedLbl=1;backgroundOutline=1;size=15;" parent="XGSOOz6GtM8z8IQ6b6iL-1" vertex="1">
          <mxGeometry x="500" y="300" width="60" height="80" as="geometry" />
        </mxCell>
        <mxCell id="pqXDrU8YGz4Q5IA9vHFx-0" style="edgeStyle=orthogonalEdgeStyle;rounded=0;orthogonalLoop=1;jettySize=auto;html=1;" edge="1" parent="XGSOOz6GtM8z8IQ6b6iL-1" source="XGSOOz6GtM8z8IQ6b6iL-6" target="XGSOOz6GtM8z8IQ6b6iL-14">
          <mxGeometry relative="1" as="geometry" />
        </mxCell>
        <mxCell id="XGSOOz6GtM8z8IQ6b6iL-6" value="Kafka" style="sketch=0;outlineConnect=0;fontColor=#232F3E;gradientColor=none;fillColor=#E7157B;strokeColor=none;dashed=0;verticalLabelPosition=bottom;verticalAlign=top;align=center;html=1;fontSize=12;fontStyle=0;aspect=fixed;pointerEvents=1;shape=mxgraph.aws4.mq_broker;" parent="XGSOOz6GtM8z8IQ6b6iL-1" vertex="1">
          <mxGeometry x="303" y="335.5" width="78" height="69" as="geometry" />
        </mxCell>
        <mxCell id="XGSOOz6GtM8z8IQ6b6iL-7" style="edgeStyle=orthogonalEdgeStyle;rounded=0;orthogonalLoop=1;jettySize=auto;html=1;" parent="XGSOOz6GtM8z8IQ6b6iL-1" source="XGSOOz6GtM8z8IQ6b6iL-9" target="XGSOOz6GtM8z8IQ6b6iL-6" edge="1">
          <mxGeometry relative="1" as="geometry" />
        </mxCell>
        <mxCell id="XGSOOz6GtM8z8IQ6b6iL-8" style="edgeStyle=orthogonalEdgeStyle;rounded=0;orthogonalLoop=1;jettySize=auto;html=1;" parent="XGSOOz6GtM8z8IQ6b6iL-1" source="XGSOOz6GtM8z8IQ6b6iL-9" target="XGSOOz6GtM8z8IQ6b6iL-4" edge="1">
          <mxGeometry relative="1" as="geometry" />
        </mxCell>
        <mxCell id="XGSOOz6GtM8z8IQ6b6iL-9" value="Integration API" style="rounded=1;whiteSpace=wrap;html=1;" parent="XGSOOz6GtM8z8IQ6b6iL-1" vertex="1">
          <mxGeometry x="282" y="160" width="120" height="60" as="geometry" />
        </mxCell>
        <mxCell id="XGSOOz6GtM8z8IQ6b6iL-10" value="" style="edgeStyle=orthogonalEdgeStyle;rounded=0;orthogonalLoop=1;jettySize=auto;html=1;" parent="XGSOOz6GtM8z8IQ6b6iL-1" source="XGSOOz6GtM8z8IQ6b6iL-11" target="XGSOOz6GtM8z8IQ6b6iL-15" edge="1">
          <mxGeometry relative="1" as="geometry" />
        </mxCell>
        <mxCell id="XGSOOz6GtM8z8IQ6b6iL-11" value="External Authorization" style="rounded=1;whiteSpace=wrap;html=1;" parent="XGSOOz6GtM8z8IQ6b6iL-1" vertex="1">
          <mxGeometry x="80" y="40" width="120" height="60" as="geometry" />
        </mxCell>
        <mxCell id="XGSOOz6GtM8z8IQ6b6iL-12" style="edgeStyle=orthogonalEdgeStyle;rounded=0;orthogonalLoop=1;jettySize=auto;html=1;" parent="XGSOOz6GtM8z8IQ6b6iL-1" source="XGSOOz6GtM8z8IQ6b6iL-14" target="XGSOOz6GtM8z8IQ6b6iL-6" edge="1">
          <mxGeometry relative="1" as="geometry" />
        </mxCell>
        <mxCell id="XGSOOz6GtM8z8IQ6b6iL-13" style="edgeStyle=orthogonalEdgeStyle;rounded=0;orthogonalLoop=1;jettySize=auto;html=1;" parent="XGSOOz6GtM8z8IQ6b6iL-1" source="XGSOOz6GtM8z8IQ6b6iL-14" target="l9ujikPQvJMTBFyuDTC3-0" edge="1">
          <mxGeometry relative="1" as="geometry">
            <Array as="points">
              <mxPoint x="140" y="490" />
            </Array>
          </mxGeometry>
        </mxCell>
        <mxCell id="l9ujikPQvJMTBFyuDTC3-2" style="edgeStyle=orthogonalEdgeStyle;rounded=0;orthogonalLoop=1;jettySize=auto;html=1;" parent="XGSOOz6GtM8z8IQ6b6iL-1" source="XGSOOz6GtM8z8IQ6b6iL-14" target="XGSOOz6GtM8z8IQ6b6iL-9" edge="1">
          <mxGeometry relative="1" as="geometry">
            <mxPoint x="240" y="200" as="targetPoint" />
            <Array as="points">
              <mxPoint x="140" y="290" />
              <mxPoint x="230" y="290" />
              <mxPoint x="230" y="190" />
            </Array>
          </mxGeometry>
        </mxCell>
        <mxCell id="XGSOOz6GtM8z8IQ6b6iL-14" value="External Communication Service" style="rounded=1;whiteSpace=wrap;html=1;" parent="XGSOOz6GtM8z8IQ6b6iL-1" vertex="1">
          <mxGeometry x="80" y="340" width="120" height="60" as="geometry" />
        </mxCell>
        <mxCell id="XGSOOz6GtM8z8IQ6b6iL-15" value="&lt;div&gt;External&lt;/div&gt;Authorization DB" style="shape=cylinder3;whiteSpace=wrap;html=1;boundedLbl=1;backgroundOutline=1;size=15;" parent="XGSOOz6GtM8z8IQ6b6iL-1" vertex="1">
          <mxGeometry x="110" y="150" width="60" height="80" as="geometry" />
        </mxCell>
        <mxCell id="XGSOOz6GtM8z8IQ6b6iL-16" style="edgeStyle=orthogonalEdgeStyle;rounded=0;orthogonalLoop=1;jettySize=auto;html=1;" parent="XGSOOz6GtM8z8IQ6b6iL-1" source="XGSOOz6GtM8z8IQ6b6iL-19" target="XGSOOz6GtM8z8IQ6b6iL-11" edge="1">
          <mxGeometry relative="1" as="geometry">
            <Array as="points">
              <mxPoint x="-130" y="70" />
            </Array>
          </mxGeometry>
        </mxCell>
        <mxCell id="XGSOOz6GtM8z8IQ6b6iL-17" value="Token" style="edgeLabel;html=1;align=center;verticalAlign=middle;resizable=0;points=[];" parent="XGSOOz6GtM8z8IQ6b6iL-16" vertex="1" connectable="0">
          <mxGeometry x="0.2059" relative="1" as="geometry">
            <mxPoint as="offset" />
          </mxGeometry>
        </mxCell>
        <mxCell id="XGSOOz6GtM8z8IQ6b6iL-18" style="edgeStyle=orthogonalEdgeStyle;rounded=0;orthogonalLoop=1;jettySize=auto;html=1;" parent="XGSOOz6GtM8z8IQ6b6iL-1" source="XGSOOz6GtM8z8IQ6b6iL-19" target="XGSOOz6GtM8z8IQ6b6iL-14" edge="1">
          <mxGeometry relative="1" as="geometry">
            <Array as="points">
              <mxPoint x="-130" y="370" />
            </Array>
          </mxGeometry>
        </mxCell>
        <mxCell id="XGSOOz6GtM8z8IQ6b6iL-19" value="Client" style="ellipse;whiteSpace=wrap;html=1;" parent="XGSOOz6GtM8z8IQ6b6iL-1" vertex="1">
          <mxGeometry x="-190" y="200" width="120" height="80" as="geometry" />
        </mxCell>
        <mxCell id="XGSOOz6GtM8z8IQ6b6iL-20" value="" style="edgeStyle=orthogonalEdgeStyle;rounded=0;orthogonalLoop=1;jettySize=auto;html=1;" parent="XGSOOz6GtM8z8IQ6b6iL-1" source="XGSOOz6GtM8z8IQ6b6iL-21" target="XGSOOz6GtM8z8IQ6b6iL-22" edge="1">
          <mxGeometry relative="1" as="geometry" />
        </mxCell>
        <mxCell id="XGSOOz6GtM8z8IQ6b6iL-21" value="FileUploader" style="rounded=1;whiteSpace=wrap;html=1;" parent="XGSOOz6GtM8z8IQ6b6iL-1" vertex="1">
          <mxGeometry x="282" y="560" width="120" height="60" as="geometry" />
        </mxCell>
        <mxCell id="XGSOOz6GtM8z8IQ6b6iL-22" value="Bucket" style="ellipse;shape=cloud;whiteSpace=wrap;html=1;" parent="XGSOOz6GtM8z8IQ6b6iL-1" vertex="1">
          <mxGeometry x="282" y="650" width="120" height="80" as="geometry" />
        </mxCell>
        <mxCell id="XGSOOz6GtM8z8IQ6b6iL-23" value="Kafka DC" style="sketch=0;outlineConnect=0;fontColor=#232F3E;gradientColor=none;fillColor=#E7157B;strokeColor=none;dashed=0;verticalLabelPosition=bottom;verticalAlign=top;align=center;html=1;fontSize=12;fontStyle=0;aspect=fixed;pointerEvents=1;shape=mxgraph.aws4.mq_broker;" parent="XGSOOz6GtM8z8IQ6b6iL-1" vertex="1">
          <mxGeometry x="700" y="155.5" width="78" height="69" as="geometry" />
        </mxCell>
        <mxCell id="l9ujikPQvJMTBFyuDTC3-1" value="" style="edgeStyle=orthogonalEdgeStyle;rounded=0;orthogonalLoop=1;jettySize=auto;html=1;" parent="XGSOOz6GtM8z8IQ6b6iL-1" source="l9ujikPQvJMTBFyuDTC3-0" target="XGSOOz6GtM8z8IQ6b6iL-21" edge="1">
          <mxGeometry relative="1" as="geometry" />
        </mxCell>
        <mxCell id="l9ujikPQvJMTBFyuDTC3-0" value="Attachment Manager" style="rounded=1;whiteSpace=wrap;html=1;" parent="XGSOOz6GtM8z8IQ6b6iL-1" vertex="1">
          <mxGeometry x="282" y="460" width="120" height="60" as="geometry" />
        </mxCell>
        <mxCell id="OBrXSXCSHSXP3IEPiYHX-0" value="&lt;div&gt;1. Validar se o token pertence a aquela brandId&lt;/div&gt;2. Validar os dados obrigatorios (como o id do template, etc)&lt;div&gt;3. Validar tbm se aplicação está configurada no delivery&lt;br&gt;&lt;div&gt;4. Enviar todos os dados inclusive do anexo para o Kafka&lt;/div&gt;&lt;div&gt;&lt;br&gt;&lt;/div&gt;&lt;div&gt;- Consumir a mensagem&lt;/div&gt;&lt;div&gt;&lt;div&gt;1. Enviar o anexo para o Attachment&lt;/div&gt;&lt;div&gt;2. Chamar o integration denovo (que deve ser assincrono tbm)&lt;/div&gt;&lt;div&gt;3. Alterar o integration/data-api tbm pra permitir forçar o communicationId&lt;/div&gt;&lt;div&gt;&lt;br&gt;&lt;/div&gt;&lt;/div&gt;&lt;div&gt;{id: &quot;86341f67-797e-4f46-81b5-40a8a66642b9&quot;}&lt;/div&gt;&lt;/div&gt;" style="text;html=1;align=left;verticalAlign=middle;whiteSpace=wrap;rounded=0;strokeColor=default;dashed=1;" parent="XGSOOz6GtM8z8IQ6b6iL-1" vertex="1">
          <mxGeometry x="-350" y="400" width="350" height="190" as="geometry" />
        </mxCell>
        <mxCell id="OBrXSXCSHSXP3IEPiYHX-1" value="" style="endArrow=none;dashed=1;html=1;dashPattern=1 3;strokeWidth=2;rounded=0;" parent="XGSOOz6GtM8z8IQ6b6iL-1" source="OBrXSXCSHSXP3IEPiYHX-0" target="XGSOOz6GtM8z8IQ6b6iL-14" edge="1">
          <mxGeometry width="50" height="50" relative="1" as="geometry">
            <mxPoint x="-30" y="440" as="sourcePoint" />
            <mxPoint x="20" y="390" as="targetPoint" />
          </mxGeometry>
        </mxCell>
        <mxCell id="OBrXSXCSHSXP3IEPiYHX-2" value="1. Cliente faz autenticação usuario/senha para pegar o token caso não tenha um token valido&lt;div&gt;&lt;br&gt;&lt;div&gt;2. Usa o External Communication Service com o token&lt;br&gt;&lt;/div&gt;&lt;/div&gt;" style="text;html=1;align=left;verticalAlign=middle;whiteSpace=wrap;rounded=0;strokeColor=default;dashed=1;" parent="XGSOOz6GtM8z8IQ6b6iL-1" vertex="1">
          <mxGeometry x="-530" y="110" width="350" height="70" as="geometry" />
        </mxCell>
        <mxCell id="OBrXSXCSHSXP3IEPiYHX-3" value="" style="endArrow=none;dashed=1;html=1;dashPattern=1 3;strokeWidth=2;rounded=0;" parent="XGSOOz6GtM8z8IQ6b6iL-1" source="OBrXSXCSHSXP3IEPiYHX-2" target="XGSOOz6GtM8z8IQ6b6iL-19" edge="1">
          <mxGeometry width="50" height="50" relative="1" as="geometry">
            <mxPoint x="-250" y="280" as="sourcePoint" />
            <mxPoint x="-138" y="241" as="targetPoint" />
          </mxGeometry>
        </mxCell>
        <mxCell id="EOsW8slYTcF1ZHwi1U9--0" value="Construir uma collection no delivery:&lt;br&gt;&lt;br&gt;&lt;div&gt;&lt;div&gt;Id da aplicação: 9999&amp;nbsp;&lt;/div&gt;&lt;div&gt;Nome da aplicação: Nome da aplicação&lt;/div&gt;&lt;div&gt;Nome da mailing: XPTO_{data}&lt;/div&gt;&lt;div&gt;Nome do ciclo: {data}&lt;/div&gt;&lt;/div&gt;&lt;div&gt;&lt;br&gt;&lt;/div&gt;" style="text;html=1;align=left;verticalAlign=middle;resizable=0;points=[];autosize=1;strokeColor=default;" vertex="1" parent="XGSOOz6GtM8z8IQ6b6iL-1">
          <mxGeometry x="-350" y="610" width="240" height="110" as="geometry" />
        </mxCell>
      </root>
    </mxGraphModel>
  </diagram>
  <diagram name="Template" id="qbYC78fr6Dl9qPiWB5jK">
    <mxGraphModel dx="2465" dy="783" grid="1" gridSize="10" guides="1" tooltips="1" connect="1" arrows="1" fold="1" page="1" pageScale="1" pageWidth="827" pageHeight="1169" math="0" shadow="0">
      <root>
        <mxCell id="HpsAoNqbEirltU0CH5FJ-0" />
        <mxCell id="HpsAoNqbEirltU0CH5FJ-1" parent="HpsAoNqbEirltU0CH5FJ-0" />
        <mxCell id="HpsAoNqbEirltU0CH5FJ-8" style="edgeStyle=orthogonalEdgeStyle;rounded=0;orthogonalLoop=1;jettySize=auto;html=1;" parent="HpsAoNqbEirltU0CH5FJ-1" source="HpsAoNqbEirltU0CH5FJ-9" target="rA7OSXRcpBrXkKuMklEF-0" edge="1">
          <mxGeometry relative="1" as="geometry">
            <mxPoint x="-196" y="410" as="targetPoint" />
          </mxGeometry>
        </mxCell>
        <mxCell id="HpsAoNqbEirltU0CH5FJ-9" value="Template API" style="rounded=1;whiteSpace=wrap;html=1;" parent="HpsAoNqbEirltU0CH5FJ-1" vertex="1">
          <mxGeometry x="-268" y="240" width="120" height="60" as="geometry" />
        </mxCell>
        <mxCell id="HpsAoNqbEirltU0CH5FJ-10" value="" style="edgeStyle=orthogonalEdgeStyle;rounded=0;orthogonalLoop=1;jettySize=auto;html=1;" parent="HpsAoNqbEirltU0CH5FJ-1" source="HpsAoNqbEirltU0CH5FJ-11" target="HpsAoNqbEirltU0CH5FJ-18" edge="1">
          <mxGeometry relative="1" as="geometry" />
        </mxCell>
        <mxCell id="HpsAoNqbEirltU0CH5FJ-11" value="External Authorization" style="rounded=1;whiteSpace=wrap;html=1;" parent="HpsAoNqbEirltU0CH5FJ-1" vertex="1">
          <mxGeometry x="-470" y="110" width="120" height="60" as="geometry" />
        </mxCell>
        <mxCell id="HpsAoNqbEirltU0CH5FJ-15" style="edgeStyle=orthogonalEdgeStyle;rounded=0;orthogonalLoop=1;jettySize=auto;html=1;" parent="HpsAoNqbEirltU0CH5FJ-1" source="HpsAoNqbEirltU0CH5FJ-17" target="HpsAoNqbEirltU0CH5FJ-9" edge="1">
          <mxGeometry relative="1" as="geometry">
            <mxPoint x="-310" y="280" as="targetPoint" />
            <Array as="points">
              <mxPoint x="-410" y="370" />
              <mxPoint x="-320" y="370" />
              <mxPoint x="-320" y="270" />
            </Array>
          </mxGeometry>
        </mxCell>
        <mxCell id="HpsAoNqbEirltU0CH5FJ-16" value="Pesquisar template" style="edgeLabel;html=1;align=center;verticalAlign=middle;resizable=0;points=[];" parent="HpsAoNqbEirltU0CH5FJ-15" vertex="1" connectable="0">
          <mxGeometry x="-0.2425" y="1" relative="1" as="geometry">
            <mxPoint as="offset" />
          </mxGeometry>
        </mxCell>
        <mxCell id="HpsAoNqbEirltU0CH5FJ-17" value="External Communication Service" style="rounded=1;whiteSpace=wrap;html=1;" parent="HpsAoNqbEirltU0CH5FJ-1" vertex="1">
          <mxGeometry x="-470" y="420" width="120" height="60" as="geometry" />
        </mxCell>
        <mxCell id="HpsAoNqbEirltU0CH5FJ-18" value="&lt;div&gt;External&lt;/div&gt;Authorization DB" style="shape=cylinder3;whiteSpace=wrap;html=1;boundedLbl=1;backgroundOutline=1;size=15;" parent="HpsAoNqbEirltU0CH5FJ-1" vertex="1">
          <mxGeometry x="-440" y="230" width="60" height="80" as="geometry" />
        </mxCell>
        <mxCell id="HpsAoNqbEirltU0CH5FJ-19" style="edgeStyle=orthogonalEdgeStyle;rounded=0;orthogonalLoop=1;jettySize=auto;html=1;" parent="HpsAoNqbEirltU0CH5FJ-1" source="HpsAoNqbEirltU0CH5FJ-22" target="HpsAoNqbEirltU0CH5FJ-11" edge="1">
          <mxGeometry relative="1" as="geometry">
            <Array as="points">
              <mxPoint x="-680" y="150" />
            </Array>
          </mxGeometry>
        </mxCell>
        <mxCell id="HpsAoNqbEirltU0CH5FJ-20" value="Token" style="edgeLabel;html=1;align=center;verticalAlign=middle;resizable=0;points=[];" parent="HpsAoNqbEirltU0CH5FJ-19" vertex="1" connectable="0">
          <mxGeometry x="0.2059" relative="1" as="geometry">
            <mxPoint as="offset" />
          </mxGeometry>
        </mxCell>
        <mxCell id="HpsAoNqbEirltU0CH5FJ-21" style="edgeStyle=orthogonalEdgeStyle;rounded=0;orthogonalLoop=1;jettySize=auto;html=1;" parent="HpsAoNqbEirltU0CH5FJ-1" source="HpsAoNqbEirltU0CH5FJ-22" target="HpsAoNqbEirltU0CH5FJ-17" edge="1">
          <mxGeometry relative="1" as="geometry">
            <Array as="points">
              <mxPoint x="-680" y="450" />
            </Array>
          </mxGeometry>
        </mxCell>
        <mxCell id="HpsAoNqbEirltU0CH5FJ-22" value="Client" style="ellipse;whiteSpace=wrap;html=1;" parent="HpsAoNqbEirltU0CH5FJ-1" vertex="1">
          <mxGeometry x="-740" y="280" width="120" height="80" as="geometry" />
        </mxCell>
        <mxCell id="rA7OSXRcpBrXkKuMklEF-0" value="Template DB&lt;div&gt;&lt;/div&gt;" style="shape=cylinder3;whiteSpace=wrap;html=1;boundedLbl=1;backgroundOutline=1;size=15;" parent="HpsAoNqbEirltU0CH5FJ-1" vertex="1">
          <mxGeometry x="-238" y="390" width="60" height="80" as="geometry" />
        </mxCell>
      </root>
    </mxGraphModel>
  </diagram>
  <diagram id="XpVBDEXHd1DzapXot_Tj" name="Flow pelos namespaces">
    <mxGraphModel dx="1638" dy="783" grid="1" gridSize="10" guides="1" tooltips="1" connect="1" arrows="1" fold="1" page="1" pageScale="1" pageWidth="827" pageHeight="1169" math="0" shadow="0">
      <root>
        <mxCell id="0" />
        <mxCell id="1" parent="0" />
        <mxCell id="mQf6Y3JGLbWv9brlVZ1m-15" style="edgeStyle=orthogonalEdgeStyle;rounded=0;orthogonalLoop=1;jettySize=auto;html=1;" edge="1" parent="1" source="Xnhe3AqcVe_5Hkh3ELjJ-1" target="Xnhe3AqcVe_5Hkh3ELjJ-2">
          <mxGeometry relative="1" as="geometry">
            <Array as="points">
              <mxPoint x="280" y="280" />
              <mxPoint x="560" y="280" />
            </Array>
          </mxGeometry>
        </mxCell>
        <mxCell id="Xnhe3AqcVe_5Hkh3ELjJ-1" value="https://multichannel.validpay.com.br/external/1040/communication/single" style="text;html=1;align=center;verticalAlign=middle;whiteSpace=wrap;rounded=0;fillColor=#D5E8D4;" parent="1" vertex="1">
          <mxGeometry x="70" y="395" width="420" height="30" as="geometry" />
        </mxCell>
        <mxCell id="Xnhe3AqcVe_5Hkh3ELjJ-6" style="edgeStyle=orthogonalEdgeStyle;rounded=0;orthogonalLoop=1;jettySize=auto;html=1;" parent="1" source="Xnhe3AqcVe_5Hkh3ELjJ-2" target="Xnhe3AqcVe_5Hkh3ELjJ-4" edge="1">
          <mxGeometry relative="1" as="geometry" />
        </mxCell>
        <mxCell id="Xnhe3AqcVe_5Hkh3ELjJ-2" value="External Gateway" style="ellipse;whiteSpace=wrap;html=1;aspect=fixed;" parent="1" vertex="1">
          <mxGeometry x="520" y="100" width="80" height="80" as="geometry" />
        </mxCell>
        <mxCell id="K4472e91vVyO4P3dv40P-2" value="" style="edgeStyle=orthogonalEdgeStyle;rounded=0;orthogonalLoop=1;jettySize=auto;html=1;" edge="1" parent="1" source="Xnhe3AqcVe_5Hkh3ELjJ-4" target="K4472e91vVyO4P3dv40P-1">
          <mxGeometry relative="1" as="geometry" />
        </mxCell>
        <mxCell id="Xnhe3AqcVe_5Hkh3ELjJ-4" value="http://multichannel-external-communication-service.multichannel-{1040}-prd.cluster.local:9000/multichannel-external-communication-service/communication/single" style="text;html=1;align=center;verticalAlign=middle;whiteSpace=wrap;rounded=0;fillColor=#D5E8D4;" parent="1" vertex="1">
          <mxGeometry x="580" y="380" width="300" height="90" as="geometry" />
        </mxCell>
        <mxCell id="Ek6ZatadtG8BG6MvMNM0-4" style="edgeStyle=orthogonalEdgeStyle;rounded=0;orthogonalLoop=1;jettySize=auto;html=1;" edge="1" parent="1" source="K4472e91vVyO4P3dv40P-1" target="K4472e91vVyO4P3dv40P-3">
          <mxGeometry relative="1" as="geometry">
            <Array as="points">
              <mxPoint x="1070" y="350" />
            </Array>
          </mxGeometry>
        </mxCell>
        <mxCell id="K4472e91vVyO4P3dv40P-1" value="External Communication Service" style="rounded=1;whiteSpace=wrap;html=1;" vertex="1" parent="1">
          <mxGeometry x="1010" y="395" width="120" height="60" as="geometry" />
        </mxCell>
        <mxCell id="Ek6ZatadtG8BG6MvMNM0-5" value="" style="swimlane;startSize=0;fillColor=#D5E8D4;" vertex="1" parent="1">
          <mxGeometry x="1210" y="255" width="190" height="335" as="geometry" />
        </mxCell>
        <mxCell id="mQf6Y3JGLbWv9brlVZ1m-4" style="edgeStyle=orthogonalEdgeStyle;rounded=0;orthogonalLoop=1;jettySize=auto;html=1;fillColor=#D5E8D4;" edge="1" parent="Ek6ZatadtG8BG6MvMNM0-5" source="K4472e91vVyO4P3dv40P-3" target="Ek6ZatadtG8BG6MvMNM0-12">
          <mxGeometry relative="1" as="geometry" />
        </mxCell>
        <mxCell id="K4472e91vVyO4P3dv40P-3" value="Integration API" style="rounded=1;whiteSpace=wrap;html=1;fillColor=#D5E8D4;" vertex="1" parent="Ek6ZatadtG8BG6MvMNM0-5">
          <mxGeometry x="40" y="65" width="120" height="60" as="geometry" />
        </mxCell>
        <mxCell id="mQf6Y3JGLbWv9brlVZ1m-6" style="edgeStyle=orthogonalEdgeStyle;rounded=0;orthogonalLoop=1;jettySize=auto;html=1;fillColor=#D5E8D4;" edge="1" parent="Ek6ZatadtG8BG6MvMNM0-5" source="Ek6ZatadtG8BG6MvMNM0-12" target="mQf6Y3JGLbWv9brlVZ1m-1">
          <mxGeometry relative="1" as="geometry" />
        </mxCell>
        <mxCell id="Ek6ZatadtG8BG6MvMNM0-12" value="Data API" style="rounded=1;whiteSpace=wrap;html=1;fillColor=#D5E8D4;" vertex="1" parent="Ek6ZatadtG8BG6MvMNM0-5">
          <mxGeometry x="40" y="155" width="120" height="60" as="geometry" />
        </mxCell>
        <mxCell id="mQf6Y3JGLbWv9brlVZ1m-1" value="NMC DB" style="shape=cylinder3;whiteSpace=wrap;html=1;boundedLbl=1;backgroundOutline=1;size=15;fillColor=#D5E8D4;" vertex="1" parent="Ek6ZatadtG8BG6MvMNM0-5">
          <mxGeometry x="70" y="245" width="60" height="80" as="geometry" />
        </mxCell>
        <mxCell id="Ek6ZatadtG8BG6MvMNM0-6" value="namespace-1040" style="text;html=1;align=center;verticalAlign=middle;resizable=0;points=[];autosize=1;strokeColor=none;fillColor=#D5E8D4;" vertex="1" parent="Ek6ZatadtG8BG6MvMNM0-5">
          <mxGeometry x="40" y="23" width="120" height="30" as="geometry" />
        </mxCell>
        <mxCell id="Ek6ZatadtG8BG6MvMNM0-1" value="Kafka" style="sketch=0;outlineConnect=0;fontColor=#232F3E;gradientColor=none;fillColor=#E7157B;strokeColor=none;dashed=0;verticalLabelPosition=bottom;verticalAlign=top;align=center;html=1;fontSize=12;fontStyle=0;aspect=fixed;pointerEvents=1;shape=mxgraph.aws4.mq_broker;" vertex="1" parent="1">
          <mxGeometry x="1480" y="315.5" width="78" height="69" as="geometry" />
        </mxCell>
        <mxCell id="Ek6ZatadtG8BG6MvMNM0-2" value="" style="edgeStyle=orthogonalEdgeStyle;rounded=0;orthogonalLoop=1;jettySize=auto;html=1;" edge="1" parent="1" source="K4472e91vVyO4P3dv40P-3" target="Ek6ZatadtG8BG6MvMNM0-1">
          <mxGeometry relative="1" as="geometry" />
        </mxCell>
        <mxCell id="mQf6Y3JGLbWv9brlVZ1m-7" value="" style="swimlane;startSize=0;" vertex="1" parent="1">
          <mxGeometry x="1210" y="610" width="190" height="335" as="geometry" />
        </mxCell>
        <mxCell id="mQf6Y3JGLbWv9brlVZ1m-8" style="edgeStyle=orthogonalEdgeStyle;rounded=0;orthogonalLoop=1;jettySize=auto;html=1;" edge="1" parent="mQf6Y3JGLbWv9brlVZ1m-7" source="mQf6Y3JGLbWv9brlVZ1m-9" target="mQf6Y3JGLbWv9brlVZ1m-11">
          <mxGeometry relative="1" as="geometry" />
        </mxCell>
        <mxCell id="mQf6Y3JGLbWv9brlVZ1m-9" value="Integration API" style="rounded=1;whiteSpace=wrap;html=1;fillColor=#FFF2CC;" vertex="1" parent="mQf6Y3JGLbWv9brlVZ1m-7">
          <mxGeometry x="40" y="65" width="120" height="60" as="geometry" />
        </mxCell>
        <mxCell id="mQf6Y3JGLbWv9brlVZ1m-10" style="edgeStyle=orthogonalEdgeStyle;rounded=0;orthogonalLoop=1;jettySize=auto;html=1;" edge="1" parent="mQf6Y3JGLbWv9brlVZ1m-7" source="mQf6Y3JGLbWv9brlVZ1m-11" target="mQf6Y3JGLbWv9brlVZ1m-12">
          <mxGeometry relative="1" as="geometry" />
        </mxCell>
        <mxCell id="mQf6Y3JGLbWv9brlVZ1m-11" value="Data API" style="rounded=1;whiteSpace=wrap;html=1;fillColor=#FFF2CC;" vertex="1" parent="mQf6Y3JGLbWv9brlVZ1m-7">
          <mxGeometry x="40" y="155" width="120" height="60" as="geometry" />
        </mxCell>
        <mxCell id="mQf6Y3JGLbWv9brlVZ1m-12" value="NMC DB" style="shape=cylinder3;whiteSpace=wrap;html=1;boundedLbl=1;backgroundOutline=1;size=15;fillColor=#FFF2CC;" vertex="1" parent="mQf6Y3JGLbWv9brlVZ1m-7">
          <mxGeometry x="70" y="245" width="60" height="80" as="geometry" />
        </mxCell>
        <mxCell id="mQf6Y3JGLbWv9brlVZ1m-13" value="namespace-9999" style="text;html=1;align=center;verticalAlign=middle;resizable=0;points=[];autosize=1;strokeColor=none;fillColor=#FFF2CC;" vertex="1" parent="mQf6Y3JGLbWv9brlVZ1m-7">
          <mxGeometry x="31" y="23" width="120" height="30" as="geometry" />
        </mxCell>
      </root>
    </mxGraphModel>
  </diagram>
</mxfile>
